<svg xmlns="http://www.w3.org/2000/svg" viewBox="0 0 40 32.5"><defs><style>.a{fill:#838383;}</style></defs><path class="a" d="M40,3.833a15.01,15.01,0,0,1-4.667,1.333A8.873,8.873,0,0,0,39,.667a15.131,15.131,0,0,1-5.167,2A8.722,8.722,0,0,0,27.667,0a8.2,8.2,0,0,0-8,10A22.793,22.793,0,0,1,2.833,1.5a8.247,8.247,0,0,0,2.5,11,11.816,11.816,0,0,1-3.667-1,8.2,8.2,0,0,0,6.5,8.167,9.084,9.084,0,0,1-3.667.167A7.9,7.9,0,0,0,12.167,25.5,16.815,16.815,0,0,1,0,28.833,23.33,23.33,0,0,0,12.5,32.5c15.167,0,23.833-12.833,23.333-24.333A17.172,17.172,0,0,0,40,3.833Z"/></svg>